<?xml version="1.0" encoding="utf-8"?>
<!-- Generator: Adobe Illustrator 23.0.1, SVG Export Plug-In . SVG Version: 6.00 Build 0)  -->
<svg version="1.1" id="uuid-5cf04d40-fb64-4e90-a4b1-f9a06a887ff2"
	 xmlns="http://www.w3.org/2000/svg" xmlns:xlink="http://www.w3.org/1999/xlink" x="0px" y="0px" viewBox="0 0 1599.6 234.2"
	 style="enable-background:new 0 0 1599.6 234.2;" xml:space="preserve">
<style type="text/css">
	.st0{fill:#FFFFFF;}
	.st1{fill:#FFA400;}
</style>
<g id="uuid-e9e6f9ca-0a5e-4de5-820a-85362b863d4b">
	<path id="uuid-9f5eddd5-3c8e-4543-b320-ede7c27ee629" class="st0" d="M107.4,195.2L107.4,195.2l-68.3,0v-58.5l68.2,0h0.1
		c16.2,0,29.4,13.1,29.4,29.3S123.6,195.2,107.4,195.2 M39,39.1h58.4c16.2,0,29.4,13.1,29.4,29.3s-13.2,29.3-29.4,29.3h-0.1H39
		C39,97.6,39,39.1,39,39.1z M149.8,112.3c10.1-11.9,16.1-27.3,16.1-44.1C165.9,30.6,135.4,0,97.7,0c-0.3,0-0.5,0-0.7,0l0,0H0v234.1
		h107.4c37.7,0,68.3-30.6,68.3-68.3C175.7,144.2,165.6,124.8,149.8,112.3"/>
</g>
<g id="uuid-f290df7f-3cd6-4d4d-bca7-894388580770">
	<path id="uuid-9b2743bc-77cc-471c-b808-db9ff2fe6643" class="st0" d="M1278,195.4L1278,195.4l-68.3,0v-58.5l68.2,0h0.1
		c16.2,0,29.4,13.1,29.4,29.3S1294.2,195.3,1278,195.4 M1209.6,39.2h58.4c16.2,0,29.4,13.1,29.4,29.3s-13.2,29.3-29.4,29.3h-0.1
		h-58.4V39.2L1209.6,39.2z M1320.4,112.4c10.1-11.9,16.2-27.3,16.2-44.1c0-37.7-30.6-68.3-68.3-68.3c-0.3,0-0.5,0-0.7,0l0,0h-96.9
		v234.1h107.4c37.7,0,68.3-30.6,68.3-68.3C1346.4,144.3,1336.2,124.9,1320.4,112.4"/>
</g>
<g id="uuid-815a2652-148e-452e-97b2-e29ebb50b058">
	<path id="uuid-701f984a-9b8b-42d9-9303-f83b1ccec39c" class="st0" d="M370.8,195.1c-43,0-77.9-34.9-77.9-77.9s34.9-77.9,77.9-77.9
		s77.9,34.9,77.9,77.9S413.8,195.1,370.8,195.1 M370.8,0.2c-64.5,0-116.9,52.4-116.9,116.9s52.4,116.9,116.9,116.9
		s116.9-52.4,116.9-116.9S435.3,0.2,370.8,0.2"/>
</g>
<g id="uuid-a3af5dd0-5629-454d-b669-3a4a93186f11">
	<path id="uuid-5222dd23-769e-4c01-b560-69f7e235fc7b" class="st0" d="M658.4,82.2L713.8,0l47,0l-78.9,117.1l78.9,117h-47.1
		L658.4,152l-55.3,82.1H556l78.9-117L556,0l47,0L658.4,82.2L658.4,82.2z"/>
</g>
<g id="uuid-10ecb58d-6632-4922-b85e-2f6b6ee96d18">
	<path id="uuid-87f138f6-d2ea-4219-b7fe-0db24be38604" class="st0" d="M838.8,234.1v-117L955.8,0l117,117.1v117h-39V133.2l-78-78
		l-78,78v100.9H838.8L838.8,234.1z"/>
</g>
<path id="uuid-9896eb51-7530-491f-a7c8-8e1ce8611c36" class="st1" d="M975.3,172.2h39v-39h-39V172.2z"/>
<g id="uuid-5f67900b-3fbc-4c49-b415-c2b8cf27f5ac">
	<path id="uuid-4428cc8d-15f9-4e76-8ab2-744a7b98d349" class="st0" d="M1433.8,0.2v234h165.8v-39.2h-126.8V0.2H1433.8z"/>
</g>
</svg>
